<?xml version="1.0" encoding="UTF-8"?>
<svg width="187px" height="407px" viewBox="0 0 187 407" version="1.1" xmlns="http://www.w3.org/2000/svg" xmlns:xlink="http://www.w3.org/1999/xlink">
    <!-- Generator: Sketch 51.3 (57544) - http://www.bohemiancoding.com/sketch -->
    <title>Group</title>
    <desc>Created with Sketch.</desc>
    <defs>
        <rect id="path-1" x="0" y="0" width="301" height="456"></rect>
    </defs>
    <g id="Page-3" stroke="none" stroke-width="1" fill="none" fill-rule="evenodd">
        <g id="LAND-FullStack" transform="translate(-957.000000, -48.000000)">
            <g id="Group" transform="translate(900.000000, 24.000000)">
                <mask id="mask-2" fill="white">
                    <use xlink:href="#path-1"></use>
                </mask>
                <g id="Mask" fill-rule="nonzero"></g>
                <g mask="url(#mask-2)">
                    <g transform="translate(58.000000, 25.000000)">
                        <path d="M128.278316,103.401934 C128.278316,123.267169 112.175152,139.370332 92.3099173,139.370332 C72.4458893,139.370332 56.341519,123.267169 56.341519,103.401934 C56.341519,83.5379055 72.4458893,67.4335353 92.3099173,67.4335353 C112.175152,67.4335353 128.278316,83.5379055 128.278316,103.401934" id="Fill-1" stroke="none" fill="#024FEB" fill-rule="evenodd"></path>
                        <path d="M92.3019514,0.604079841 C69.4929587,0.604079841 -12.6848318,131.266368 69.1634606,328.809529" id="Stroke-3" stroke="#024FEB" stroke-width="3" fill="none" stroke-linecap="round"></path>
                        <path d="M92.3019514,0.604079841 C115.110944,0.604079841 197.475812,130.814968 115.626313,328.358128" id="Stroke-5" stroke="#024FEB" stroke-width="3" fill="none" stroke-linecap="round"></path>
                        <path d="M41.4614816,240.095848 L6.05673019,275.500599 C2.56501594,278.99352 0.602510803,283.727189 0.602510803,288.666039 L0.602510803,306.61584 C0.602510803,308.394889 2.41897466,309.597014 4.05680951,308.901809 L53.9172337,287.719789" id="Stroke-7" stroke="#024FEB" stroke-width="3" fill="none" stroke-linecap="round"></path>
                        <path d="M4.81199984,301.7517 L52.2186892,281.61128" id="Stroke-9" stroke="#024FEB" stroke-width="2" fill="none" stroke-linecap="round"></path>
                        <path d="M143.154249,240.095848 L178.559001,275.500599 C182.051922,278.99352 184.01322,283.727189 184.01322,288.666039 L184.01322,306.61584 C184.01322,308.394889 182.196756,309.597014 180.558921,308.901809 L130.699704,287.719789" id="Stroke-11" stroke="#024FEB" stroke-width="3" fill="none" stroke-linecap="round"></path>
                        <path d="M179.643327,301.7517 L132.412853,281.687318" id="Stroke-13" stroke="#024FEB" stroke-width="2" fill="none" stroke-linecap="round"></path>
                        <path d="M115.805666,327.27694 C115.805666,332.095095 105.282245,336.000794 92.3014686,336.000794 C79.320692,336.000794 68.7984781,332.095095 68.7984781,327.27694 C68.7984781,322.458785 79.320692,318.553086 92.3014686,318.553086 C105.282245,318.553086 115.805666,322.458785 115.805666,327.27694 Z" id="Stroke-15" stroke="#024FEB" stroke-width="3" fill="none" stroke-linecap="round"></path>
                        <path d="M107.290977,324.116896 C107.290977,327.189798 100.579113,329.679742 92.3018307,329.679742 C84.0245489,329.679742 77.3126847,327.189798 77.3126847,324.116896 C77.3126847,321.043995 84.0245489,318.554051 92.3018307,318.554051 C100.579113,318.554051 107.290977,321.043995 107.290977,324.116896" id="Fill-17" stroke="none" fill="#024FEB" fill-rule="evenodd"></path>
                        <path d="M62.3284873,311.466221 C60.1185569,305.669227 75.586863,300.233112 92.3019514,300.233112 C109.01704,300.233112 124.50345,305.669227 122.292313,311.466221" id="Stroke-19" stroke="#024FEB" stroke-width="3" fill="none" stroke-linecap="round"></path>
                        <path d="M99.7971278,249.817369 C99.7971278,270.462296 96.4417993,287.199109 92.3019514,287.199109 C88.1621035,287.199109 84.8079819,270.462296 84.8079819,249.817369 C84.8079819,229.172443 88.1621035,212.435629 92.3019514,212.435629 C96.4417993,212.435629 99.7971278,229.172443 99.7971278,249.817369 Z" id="Stroke-21" stroke="#024FEB" stroke-width="3" fill="none" stroke-linecap="round"></path>
                        <path d="M107.601043,337.754014 C107.601043,345.071768 100.755207,406.014433 92.3101587,406.014433 C83.8663174,406.014433 77.0204815,345.071768 77.0204815,337.754014 C77.0204815,330.435053 83.8663174,324.501673 92.3101587,324.501673 C100.755207,324.501673 107.601043,330.435053 107.601043,337.754014" id="Fill-23" stroke="none" fill="#FF0F53" fill-rule="evenodd"></path>
                        <path d="M101.256213,336.193545 C101.256213,341.133602 97.2515438,381.543587 92.3102794,381.543587 C87.3702218,381.543587 83.3655527,341.133602 83.3655527,336.193545 C83.3655527,331.25228 87.3702218,327.248818 92.3102794,327.248818 C97.2515438,327.248818 101.256213,331.25228 101.256213,336.193545" id="Fill-26" stroke="none" fill="#FFFC42" fill-rule="evenodd"></path>
                        <path d="M116.750951,84.4619485 C111.423462,97.5875595 102.090097,93.4223656 91.4399458,94.2177475 C80.6884108,95.021578 72.4738906,99.7081754 67.6810813,87.8377953 C44.707943,132.753334 114.495157,134.485311 85.407596,109.034299 L98.8663259,109.034299 C73.5408368,124.529158 139.678225,137.506314 116.750951,84.4619485" id="Fill-28" stroke="none" fill="#FFFFFF" fill-rule="evenodd"></path>
                        <path d="M77.7702405,107.73936 C77.7702405,110.074813 75.8777386,111.968522 73.5410782,111.968522 C71.2056246,111.968522 69.3119158,110.074813 69.3119158,107.73936 C69.3119158,105.403906 71.2056246,103.510197 73.5410782,103.510197 C75.8777386,103.510197 77.7702405,105.403906 77.7702405,107.73936" id="Fill-30" stroke="none" fill="#024FEB" fill-rule="evenodd"></path>
                        <path d="M114.999542,107.73936 C114.999542,110.074813 113.10704,111.968522 110.77038,111.968522 C108.436133,111.968522 106.541218,110.074813 106.541218,107.73936 C106.541218,105.403906 108.436133,103.510197 110.77038,103.510197 C113.10704,103.510197 114.999542,105.403906 114.999542,107.73936" id="Fill-32" stroke="none" fill="#024FEB" fill-rule="evenodd"></path>
                        <path d="M76.1837012,104.997766 C76.1837012,106.371279 75.0696838,107.485296 73.6949646,107.485296 C72.3214524,107.485296 71.2074351,106.371279 71.2074351,104.997766 C71.2074351,103.623047 72.3214524,102.50903 73.6949646,102.50903 C75.0696838,102.50903 76.1837012,103.623047 76.1837012,104.997766" id="Fill-34" stroke="none" fill="#FFFFFF" fill-rule="evenodd"></path>
                        <path d="M113.413003,104.997766 C113.413003,106.371279 112.298986,107.485296 110.924266,107.485296 C109.551961,107.485296 108.437944,106.371279 108.437944,104.997766 C108.437944,103.623047 109.551961,102.50903 110.924266,102.50903 C112.298986,102.50903 113.413003,103.623047 113.413003,104.997766" id="Fill-36" stroke="none" fill="#FFFFFF" fill-rule="evenodd"></path>
                        <path d="M59.9346173,161.084618 C62.0842001,160.546317 63.1632158,160.300099 65.328489,159.85232 C65.507118,160.718912 65.5964325,161.152208 65.7774754,162.0188 C63.6472039,162.460545 62.5850855,162.703142 60.4717112,163.231787 L60.7903467,164.503915 C63.4275385,163.844919 64.7515656,163.549216 67.4116894,163.026605 C67.5891115,163.928199 67.677219,164.378392 67.8546411,165.278779 C64.1323989,166.010193 62.2797264,166.443489 58.6057623,167.447673 C57.6245097,163.86061 57.1344869,162.067078 56.1520274,158.478807 C60.1011767,157.399792 62.0914418,156.933908 66.0912831,156.149389 L66.5330278,158.400356 C63.7666922,158.942277 62.3883522,159.248843 59.6473625,159.935599 C59.762023,160.395448 59.8187498,160.624769 59.9346173,161.084618" id="Fill-38" stroke="none" fill="#024FEB" fill-rule="evenodd"></path>
                        <path d="M79.9413071,158.815065 C79.9413071,158.804202 79.9401001,158.798167 79.9388932,158.788512 C79.9413071,158.806616 79.942514,158.816271 79.943721,158.835583 C79.943721,158.827134 79.942514,158.822306 79.9413071,158.815065 M75.9306032,157.471726 C75.3910953,157.17723 74.6210595,157.095157 73.6217026,157.237577 C72.5680329,157.387239 72.0405945,157.466898 70.9893387,157.637079 C71.2862491,159.47044 71.4334973,160.386517 71.7304077,162.219878 C72.7116602,162.06056 73.2016831,161.985729 74.1841426,161.84693 C76.164752,161.563296 77.0735874,160.68222 76.8889236,159.150597 C76.7899535,158.32987 76.4689041,157.766223 75.9306032,157.471726 M78.9419502,156.33357 C79.510425,156.973255 79.8459578,157.807259 79.9413071,158.815065 C80.0825206,160.283926 79.6781914,161.481223 78.7802186,162.392472 C77.8834527,163.304929 76.4737319,163.872196 74.5341589,164.148589 C72.4171638,164.450327 71.3622871,164.622921 69.2561546,165.01156 C68.5802611,161.354493 68.2435212,159.52596 67.5664208,155.867686 C69.8620449,155.444046 71.0146847,155.255761 73.3235853,154.928677 C74.5751953,154.751255 75.6867987,154.785049 76.6475331,155.019198 C77.6082675,155.253347 78.3746825,155.696299 78.9419502,156.33357" id="Fill-40" stroke="none" fill="#024FEB" fill-rule="evenodd"></path>
                        <path d="M91.1009127,161.762322 C90.2017329,162.584257 88.8439111,163.013932 87.0033082,163.096005 C85.1844304,163.178078 83.8024696,162.882375 82.8320796,162.164238 C81.8653104,161.446101 81.3028705,160.347774 81.1713126,158.849945 C81.0059601,156.941753 80.9214734,155.987054 80.7561209,154.077654 C82.0777341,153.962994 82.7403512,153.913509 84.0667922,153.829022 C84.1886944,155.771009 84.250249,156.741399 84.3733582,158.683386 C84.4180155,159.377384 84.6413017,159.899994 85.04201,160.251218 C85.4439253,160.603648 86.064299,160.754517 86.9115798,160.715894 C87.7214451,160.680893 88.3152658,160.463641 88.6990768,160.059312 C89.0816808,159.654983 89.2663446,159.105819 89.2482403,158.411822 C89.1975483,156.487939 89.1709953,155.525998 89.1190963,153.602115 C90.4491583,153.565906 91.1141892,153.557458 92.4442511,153.55263 C92.4490789,155.466857 92.4514928,156.42397 92.4575276,158.336991 C92.4623554,159.803438 92.0012995,160.941595 91.1009127,161.762322" id="Fill-42" stroke="none" fill="#024FEB" fill-rule="evenodd"></path>
                        <path d="M93.7045512,158.473859 L93.7045512,158.479894 L93.7045512,158.466617 L93.7045512,158.473859 Z M102.172532,163.073556 C101.361459,163.158043 100.532283,163.178561 99.683795,163.132697 C98.5046022,163.071142 97.4726576,162.871995 96.5795126,162.525599 C95.6863675,162.177997 94.9827141,161.671077 94.4697592,160.993976 C93.9568043,160.316876 93.6985164,159.479251 93.7045512,158.473859 C93.7117929,157.446742 93.9761155,156.557218 94.5095886,155.810114 C95.0418548,155.063011 95.8130976,154.495743 96.8160753,154.117967 C97.8214669,153.741397 99.0115223,153.58208 100.374172,153.655704 C102.008386,153.745018 103.518284,153.981581 104.891796,154.353322 C104.460914,155.37199 104.24849,155.882531 103.832092,156.90482 C103.322757,156.664637 102.77118,156.477559 102.179773,156.344794 C101.589573,156.21203 100.930577,156.126336 100.207612,156.086506 C99.1104924,156.027366 98.2607977,156.19996 97.6645631,156.59222 C97.0683284,156.984479 96.7629694,157.579507 96.7400373,158.373682 C96.7183121,159.107509 96.9971182,159.666328 97.5667999,160.052553 C98.1364816,160.438778 98.9354843,160.653616 99.9710497,160.710342 C100.628839,160.745344 101.275766,160.703101 101.914244,160.583612 C102.551515,160.462917 103.088609,160.30722 103.523112,160.112901 C103.800711,161.137604 103.937096,161.649352 104.200212,162.674054 C103.65829,162.856304 102.982397,162.987862 102.172532,163.073556 Z" id="Fill-44" stroke="none" fill="#024FEB" fill-rule="evenodd"></path>
                        <path d="M111.914933,157.021774 C111.067652,158.231141 110.652461,158.839445 109.836561,160.062088 C111.11231,160.226234 111.749581,160.315548 113.021709,160.509868 C112.594448,159.113423 112.373575,158.415805 111.914933,157.021774 M108.540293,162.036663 C108.11786,162.693245 107.90785,163.022743 107.493865,163.682946 C106.285706,163.545354 105.681022,163.483799 104.470449,163.373966 C106.692449,159.840009 107.868021,158.094755 110.354343,154.660975 C111.836481,154.849259 112.575136,154.954264 114.052447,155.182378 C115.45734,159.161701 116.092197,161.161622 117.224318,165.166291 C116.027021,164.935763 115.427166,164.828344 114.225041,164.62799 C114.016238,163.880886 113.908819,163.506731 113.691568,162.759627 C111.636127,162.430129 110.60539,162.285295 108.540293,162.036663" id="Fill-46" stroke="none" fill="#024FEB" fill-rule="evenodd"></path>
                        <path d="M124.876761,159.683105 C124.222592,162.396335 123.896715,163.75295 123.24134,166.466179 C122.079044,166.186166 121.496086,166.052194 120.33017,165.798734 C120.922784,163.072228 121.21728,161.708372 121.809894,158.980658 C120.186542,158.628228 119.373056,158.46529 117.74367,158.163551 C117.912643,157.249888 117.998337,156.79366 118.166104,155.881204 C122.736834,156.727278 125.008319,157.247474 129.512666,158.478566 L128.899534,160.71867 C127.295494,160.27934 126.490456,160.072951 124.876761,159.683105" id="Fill-48" stroke="none" fill="#024FEB" fill-rule="evenodd"></path>
                    </g>
                </g>
            </g>
        </g>
    </g>
</svg>