<?xml version="1.0" encoding="UTF-8"?>
<svg width="26px" height="26px" viewBox="0 0 26 26" version="1.1" xmlns="http://www.w3.org/2000/svg" xmlns:xlink="http://www.w3.org/1999/xlink">
    <!-- Generator: Sketch 51.3 (57544) - http://www.bohemiancoding.com/sketch -->
    <title>Group 10</title>
    <desc>Created with Sketch.</desc>
    <defs></defs>
    <g id="Page-3" stroke="none" stroke-width="1" fill="none" fill-rule="evenodd">
        <g id="LAND-FullStack" transform="translate(-1261.000000, -21.000000)" fill-rule="nonzero">
            <g id="Group-10" transform="translate(1260.000000, 20.000000)">
                <rect id="Rectangle-7" x="0" y="0" width="28" height="28"></rect>
                <g id="Group-2" transform="translate(2.000000, 2.000000)" stroke="#024FEB" stroke-width="1.8">
                    <path d="M12,24 C18.627417,24 24,18.627417 24,12 C24,5.372583 18.627417,0 12,0 C5.372583,0 0,5.372583 0,12 C0,14.6218411 0.840828237,17.0472963 2.26753994,19.0214208 C3.33106374,20.4930064 4.72014918,21.7137981 6.32919256,22.5781923 C8.01788113,23.4853726 9.94884173,24 12,24 Z" id="Oval-15"></path>
                    <path d="M12,24 C18.627417,24 24,18.627417 24,12 C24,5.372583 18.627417,0 12,0 C5.372583,0 0,5.372583 0,12 C0,14.6218411 0.840828237,17.0472963 2.26753994,19.0214208 C3.33106374,20.4930064 4.72014918,21.7137981 6.32919256,22.5781923 C8.01788113,23.4853726 9.94884173,24 12,24 Z" id="Oval-15"></path>
                    <path d="M12,24 C14.7614237,24 17,18.627417 17,12 C17,5.372583 14.7614237,0 12,0 C9.23857625,0 7,5.372583 7,12 C7,14.6218411 7.3503451,17.0472963 7.94480831,19.0214208 C8.38794323,20.4930064 8.96672882,21.7137981 9.63716357,22.5781923 C10.3407838,23.4853726 11.1453507,24 12,24 Z" id="Oval-15"></path>
                    <path d="M12,24 C14.7614237,24 17,18.627417 17,12 C17,5.372583 14.7614237,0 12,0 C9.23857625,0 7,5.372583 7,12 C7,14.6218411 7.3503451,17.0472963 7.94480831,19.0214208 C8.38794323,20.4930064 8.96672882,21.7137981 9.63716357,22.5781923 C10.3407838,23.4853726 11.1453507,24 12,24 Z" id="Oval-15" transform="translate(12.000000, 12.000000) rotate(90.000000) translate(-12.000000, -12.000000) "></path>
                </g>
            </g>
        </g>
    </g>
</svg>